Coordinates
version=1
nRows=21
nColumns=22
inDegrees=yes

Units are S.I. units (second, meters, Newtons, ...)
If the header above contains a line with 'inDegrees', this indicates whether rotational values are in degrees (yes) or radians (no).

endheader
time	pelvis_tilt	pelvis_list	pelvis_rotation	pelvis_tx	pelvis_ty	pelvis_tz	hip_flexion_r	hip_adduction_r	hip_rotation_r	knee_angle_r	ankle_angle_r	subtalar_angle_r	hip_flexion_l	hip_adduction_l	hip_rotation_l	knee_angle_l	ankle_angle_l	subtalar_angle_l	lumbar_extension	lumbar_bending	lumbar_rotation
      0.01000000	     -8.00076757	      3.28903502	    -44.00433475	     -1.48781345	      0.88624458	     -0.58910918	      6.82117109	      1.70257039	      1.97905244	     -7.40478682	     12.75996820	     -2.78308465	      7.34944485	     -5.63306770	     -5.15643633	    -11.79558537	     16.25169253	      2.38891212	      3.68151079	      2.53812124	     13.09390784
      0.02000000	     -7.98011155	      3.30260218	    -43.98908351	     -1.48782246	      0.88626334	     -0.58922238	      6.82462823	      1.67056760	      1.97041240	     -7.41247613	     12.75829258	     -2.79131736	      7.35807785	     -5.60009369	     -5.15011493	    -11.80686983	     16.24168503	      2.39331512	      3.67585509	      2.50471420	     13.09540417
      0.03000000	     -7.97927360	      3.30006669	    -43.98099667	     -1.48782927	      0.88627664	     -0.58933847	      6.82805104	      1.66578454	      1.97142390	     -7.41206463	     12.75901826	     -2.79188250	      7.36142496	     -5.59500213	     -5.15099171	    -11.80304866	     16.24055952	      2.39339257	      3.67365799	      2.50672769	     13.09676920
      0.04000000	     -7.97704626	      3.29731832	    -43.97022004	     -1.48781867	      0.88629139	     -0.58945205	      6.82952220	      1.65945165	      1.97318662	     -7.41397234	     12.75844865	     -2.79247101	      7.36424607	     -5.58845049	     -5.15028090	    -11.80140983	     16.23842658	      2.39339060	      3.67570439	      2.50607867	     13.09881459
      0.05000000	     -7.95949542	      3.32274798	    -43.95713815	     -1.48780532	      0.88629908	     -0.58958747	      6.84235042	      1.61754366	      1.96874986	     -7.41729541	     12.74993973	     -2.79750827	      7.37868685	     -5.54514452	     -5.11932471	    -11.80325594	     16.21293034	      2.39149075	      3.68717350	      2.46812030	     13.09727125
      0.06000000	     -7.95835977	      3.31797667	    -43.95473890	     -1.48776456	      0.88631212	     -0.58968066	      6.84096558	      1.61292391	      1.96968175	     -7.41922256	     12.75025930	     -2.79772543	      7.37704237	     -5.54112344	     -5.12029693	    -11.80260704	     16.21212216	      2.39102138	      3.69479971	      2.47315529	     13.09867625
      0.07000000	     -7.95671342	      3.31323173	    -43.95676916	     -1.48770311	      0.88632288	     -0.58975953	      6.83756600	      1.60772145	      1.97021867	     -7.42090693	     12.74988779	     -2.79789882	      7.37309430	     -5.53636525	     -5.12070062	    -11.80324804	     16.21144351	      2.39045225	      3.70561778	      2.47916738	     13.10141843
      0.08000000	     -7.93524557	      3.30691077	    -44.00061842	     -1.48762858	      0.88636242	     -0.58975421	      6.80633096	      1.59373595	      2.01516560	     -7.40181330	     12.73694174	     -2.79446815	      7.31640899	     -5.52077938	     -5.16089793	    -11.75859406	     16.20251407	      2.36673202	      3.70476406	      2.47375601	     13.16052115
      0.09000000	     -7.93265197	      3.30102904	    -44.00921690	     -1.48753025	      0.88636971	     -0.58980360	      6.79848863	      1.58903889	      2.01352217	     -7.40330256	     12.73756416	     -2.79447301	      7.30876439	     -5.51623583	     -5.16022639	    -11.76510542	     16.20249937	      2.36628581	      3.71980100	      2.48201882	     13.16431559
      0.10000000	     -7.90066438	      3.26057853	    -44.06832524	     -1.48742905	      0.88644133	     -0.58974450	      6.72139851	      1.59567592	      2.05491401	     -7.36514370	     12.73586559	     -2.78266161	      7.22037375	     -5.52384734	     -5.23551730	    -11.73887593	     16.23142855	      2.34632217	      3.68651806	      2.49718099	     13.24640754
      0.11000000	     -7.89185586	      3.24859634	    -44.08599759	     -1.48732193	      0.88646113	     -0.58975560	      6.69304209	      1.59284792	      2.05275969	     -7.34737134	     12.73618438	     -2.77958392	      7.19642004	     -5.52087242	     -5.24118080	    -11.73986183	     16.22923969	      2.34320185	      3.69402820	      2.50164013	     13.28390232
      0.12000000	     -7.88915068	      3.24294091	    -44.09883238	     -1.48723220	      0.88646781	     -0.58979151	      6.68571507	      1.58948545	      2.05296400	     -7.34930474	     12.73546957	     -2.77932140	      7.18756795	     -5.51690183	     -5.24037845	    -11.74623958	     16.22953714	      2.34296325	      3.70734452	      2.50810163	     13.28480877
      0.13000000	     -7.85221691	      3.19904492	    -44.16175288	     -1.48717492	      0.88655491	     -0.58973048	      6.60661638	      1.59784935	      2.11908685	     -7.31644879	     12.71741371	     -2.76413300	      7.09484055	     -5.52623013	     -5.32130871	    -11.72144109	     16.25486413	      2.32959679	      3.65936581	      2.51802876	     13.35723879
      0.14000000	     -7.85082754	      3.19442436	    -44.17065765	     -1.48711298	      0.88656199	     -0.58977194	      6.60166422	      1.59641559	      2.11751431	     -7.31733698	     12.71737734	     -2.76404122	      7.08973543	     -5.52345599	     -5.31964055	    -11.72634088	     16.25396781	      2.32962685	      3.66908546	      2.51979301	     13.35738100
      0.15000000	     -7.84978286	      3.18977716	    -44.18151052	     -1.48706459	      0.88656691	     -0.58981604	      6.59801134	      1.59506427	      2.11579023	     -7.31706198	     12.71750875	     -2.76384343	      7.08434383	     -5.52215549	     -5.31978719	    -11.73008461	     16.25396772	      2.32954759	      3.67594522	      2.52088062	     13.35705539
      0.16000000	     -7.82411241	      3.15450275	    -44.22075653	     -1.48703519	      0.88662923	     -0.58980935	      6.54861755	      1.60369468	      2.14092683	     -7.30808204	     12.71629330	     -2.75332495	      7.02354980	     -5.53173344	     -5.38324521	    -11.72025083	     16.26861424	      2.32780404	      3.63392144	      2.52826807	     13.38856920
      0.17000000	     -7.82477225	      3.15081514	    -44.23126054	     -1.48700672	      0.88663090	     -0.58985833	      6.54837582	      1.60372596	      2.14032305	     -7.30793077	     12.71581891	     -2.75306338	      7.01963127	     -5.53153903	     -5.38460208	    -11.72048823	     16.26875623	      2.32804602	      3.63700929	      2.52752046	     13.38155246
      0.18000000	     -7.82603293	      3.14155900	    -44.24086178	     -1.48698261	      0.88663795	     -0.58991263	      6.54851833	      1.60854384	      2.14517235	     -7.31564284	     12.71279802	     -2.75121916	      7.00806654	     -5.53643177	     -5.40890497	    -11.70960337	     16.27189873	      2.32904657	      3.63387898	      2.53415126	     13.35365793
      0.19000000	     -7.82803480	      3.12958210	    -44.25219624	     -1.48698192	      0.88664740	     -0.58997068	      6.54863180	      1.61683325	      2.14741139	     -7.32255876	     12.71000125	     -2.74861560	      6.99998252	     -5.54567668	     -5.43033979	    -11.70652005	     16.27359805	      2.33153154	      3.62543944	      2.54155062	     13.33505106
      0.20000000	     -7.83190092	      3.12012752	    -44.25734204	     -1.48699694	      0.88665710	     -0.59004605	      6.55269592	      1.62460075	      2.15022371	     -7.32841541	     12.70583846	     -2.74596899	      6.99868521	     -5.55367570	     -5.44629013	    -11.70392675	     16.27482754	      2.33488831	      3.61605305	      2.54624491	     13.31635814
      0.21000000	     -7.83459954	      3.11691883	    -44.25997006	     -1.48702463	      0.88666430	     -0.59013465	      6.55830180	      1.62590569	      2.14989599	     -7.32642427	     12.70520249	     -2.74557680	      7.00256948	     -5.55521431	     -5.44849673	    -11.70075403	     16.27493010	      2.33541437	      3.60838979	      2.54348710	     13.31131557
